<svg width="67" height="68" viewBox="0 0 67 68" fill="none" xmlns="http://www.w3.org/2000/svg">
<path d="M33.3367 23.9998C30.6845 23.9998 28.141 25.0534 26.2656 26.9288C24.3902 28.8041 23.3367 31.3477 23.3367 33.9998C23.3367 36.652 24.3902 39.1955 26.2656 41.0709C28.141 42.9463 30.6845 43.9998 33.3367 43.9998C35.9888 43.9998 38.5324 42.9463 40.4077 41.0709C42.2831 39.1955 43.3367 36.652 43.3367 33.9998C43.3367 31.3477 42.2831 28.8041 40.4077 26.9288C38.5324 25.0534 35.9888 23.9998 33.3367 23.9998ZM33.3367 17.3332C37.7569 17.3332 41.9962 19.0891 45.1218 22.2147C48.2474 25.3403 50.0033 29.5796 50.0033 33.9998C50.0033 38.4201 48.2474 42.6593 45.1218 45.785C41.9962 48.9106 37.7569 50.6665 33.3367 50.6665C28.9164 50.6665 24.6772 48.9106 21.5516 45.785C18.4259 42.6593 16.67 38.4201 16.67 33.9998C16.67 29.5796 18.4259 25.3403 21.5516 22.2147C24.6772 19.0891 28.9164 17.3332 33.3367 17.3332ZM55.0033 16.4998C55.0033 17.6049 54.5643 18.6647 53.7829 19.4461C53.0015 20.2275 51.9417 20.6665 50.8367 20.6665C49.7316 20.6665 48.6718 20.2275 47.8904 19.4461C47.109 18.6647 46.67 17.6049 46.67 16.4998C46.67 15.3948 47.109 14.335 47.8904 13.5536C48.6718 12.7722 49.7316 12.3332 50.8367 12.3332C51.9417 12.3332 53.0015 12.7722 53.7829 13.5536C54.5643 14.335 55.0033 15.3948 55.0033 16.4998ZM33.3367 7.33317C25.09 7.33317 23.7433 7.3565 19.9067 7.5265C17.2933 7.64984 15.54 7.99984 13.9133 8.63317C12.5528 9.13441 11.3224 9.93529 10.3133 10.9765C9.27091 11.9852 8.46887 13.2156 7.96667 14.5765C7.33333 16.2098 6.98333 17.9598 6.86333 20.5698C6.69 24.2498 6.66667 25.5365 6.66667 33.9998C6.66667 42.2498 6.69 43.5932 6.86 47.4298C6.98333 50.0398 7.33333 51.7965 7.96333 53.4198C8.53 54.8698 9.19667 55.9132 10.3033 57.0198C11.4267 58.1398 12.47 58.8098 13.9033 59.3632C15.55 59.9998 17.3033 60.3532 19.9033 60.4732C23.5833 60.6465 24.87 60.6665 33.3333 60.6665C41.5833 60.6665 42.9267 60.6432 46.7633 60.4732C49.37 60.3498 51.1233 59.9998 52.7533 59.3698C54.1139 58.8686 55.3443 58.0677 56.3533 57.0265C57.4767 55.9065 58.1467 54.8632 58.7 53.4265C59.3333 51.7865 59.6867 50.0332 59.8067 47.4265C59.98 43.7498 60 42.4598 60 33.9998C60 25.7532 59.9767 24.4065 59.8067 20.5698C59.6833 17.9632 59.33 16.2032 58.7 14.5765C58.1988 13.2159 57.3979 11.9856 56.3567 10.9765C55.3479 9.93408 54.1175 9.13204 52.7567 8.62984C51.1233 7.9965 49.37 7.6465 46.7633 7.5265C43.0867 7.35317 41.8 7.33317 33.3333 7.33317M33.3333 0.666504C42.39 0.666504 43.52 0.699837 47.0767 0.866504C50.6233 1.03317 53.0433 1.58984 55.1667 2.4165C57.3667 3.26317 59.22 4.40984 61.0733 6.25984C62.769 7.92561 64.0806 9.94141 64.9167 12.1665C65.74 14.2898 66.3 16.7098 66.4667 20.2598C66.6233 23.8132 66.6667 24.9432 66.6667 33.9998C66.6667 43.0565 66.6333 44.1865 66.4667 47.7398C66.3 51.2932 65.74 53.7065 64.9167 55.8332C64.0806 58.0583 62.769 60.0741 61.0733 61.7398C59.4076 63.4355 57.3918 64.7471 55.1667 65.5832C53.0433 66.4065 50.6233 66.9665 47.0767 67.1332C43.52 67.2898 42.39 67.3332 33.3333 67.3332C24.2767 67.3332 23.1467 67.2998 19.59 67.1332C16.0433 66.9665 13.6267 66.4065 11.5 65.5832C9.27491 64.7471 7.25911 63.4355 5.59333 61.7398C3.89769 60.0741 2.58605 58.0583 1.75 55.8332C0.923334 53.7098 0.366666 51.2898 0.2 47.7398C0.0399998 44.1865 0 43.0565 0 33.9998C0 24.9432 0.0333331 23.8132 0.2 20.2598C0.366666 16.7065 0.923334 14.2932 1.75 12.1665C2.58605 9.94141 3.89769 7.92561 5.59333 6.25984C7.25911 4.56419 9.27491 3.25256 11.5 2.4165C13.6233 1.58984 16.04 1.03317 19.59 0.866504C23.15 0.709837 24.28 0.666504 33.3367 0.666504" fill="#FEB640"/>
</svg>
