<svg width="59" height="62" viewBox="0 0 59 62" fill="none" xmlns="http://www.w3.org/2000/svg">
<path d="M45.5228 60.2267L1.96613 4.22667C1.73656 3.93103 1.59455 3.57691 1.55627 3.20457C1.51798 2.83223 1.58495 2.45661 1.74956 2.12045C1.91417 1.78428 2.16981 1.50106 2.48741 1.30298C2.80501 1.10491 3.17183 0.999934 3.54613 1H11.8128C12.1171 1.00045 12.4173 1.07035 12.6905 1.20436C12.9638 1.33838 13.2028 1.53297 13.3895 1.77333L56.9461 57.7733C57.1757 58.069 57.3177 58.4231 57.356 58.7954C57.3943 59.1678 57.3273 59.5434 57.1627 59.8796C56.9981 60.2157 56.7424 60.4989 56.4248 60.697C56.1072 60.8951 55.7404 61.0001 55.3661 61H47.0995C46.7951 60.9995 46.4949 60.9297 46.2217 60.7956C45.9485 60.6616 45.7094 60.467 45.5228 60.2267Z" fill="#FEB640" stroke="#FEB640" stroke-width="1.5"/>
<path d="M56.1228 1L2.78943 61L56.1228 1Z" fill="#FEB640"/>
<path d="M56.1228 1L2.78943 61" stroke="#FEB640" stroke-width="1.5" stroke-linecap="round"/>
</svg>
